<?xml version="1.0" encoding="UTF-8"?>
<svg id="Capa_1" data-name="Capa 1" xmlns="http://www.w3.org/2000/svg" viewBox="0 0 64.38 64">
  <defs>
    <style>
      .cls-1 {
        fill: #1d1d1b;
      }
    </style>
  </defs>
  <path class="cls-1" d="M44.6,60.72c.21.72.33,1.3.34,1.74s-.09.78-.3,1c-.22.23-.57.38-1.07.44-.5.07-1.16.1-2,.1s-1.5-.02-2-.07c-.5-.05-.87-.13-1.13-.25s-.44-.27-.56-.47-.24-.44-.34-.74l-4.48-15.44H11.36l-4.28,15.24c-.08.29-.19.55-.32.76-.14.21-.33.39-.58.54s-.62.25-1.09.32c-.47.07-1.08.1-1.84.1s-1.42-.04-1.92-.12c-.5-.08-.85-.24-1.05-.47S-.01,62.85,0,62.41c.01-.44.13-1.02.34-1.74L17.85,1.76c.11-.36.25-.65.42-.88.17-.23.43-.41.77-.54.34-.13.77-.22,1.29-.27s1.19-.07,2-.07c.86,0,1.57.02,2.14.07s1.02.14,1.37.27c.35.13.62.32.81.56s.34.55.44.91l17.51,58.9ZM22.13,8.72h-.04l-9,31.61h18.16l-9.12-31.61Z"/>
  <path class="cls-1" d="M46.96,62.24c-.11.36-.26.65-.44.88-.19.23-.45.41-.79.54-.34.13-.77.22-1.29.27-.53.05-1.18.07-1.96.07-.59,0-1.11,0-1.55-.02-.44-.02-.83-.06-1.15-.12-.32-.07-.6-.14-.83-.22s-.42-.19-.58-.32c-.16-.13-.29-.29-.38-.47s-.18-.4-.26-.66L20.65,3.28c-.22-.72-.33-1.3-.34-1.74-.01-.44.1-.78.34-1,.24-.23.63-.37,1.17-.44.54-.07,1.26-.1,2.18-.1.75,0,1.35.02,1.8.07.44.05.79.14,1.03.27.24.13.42.3.54.51.12.21.24.48.34.81l14.97,53.37h.04L57.29,1.76c.08-.36.18-.65.28-.88.11-.23.3-.41.57-.54.27-.13.64-.22,1.13-.27.48-.05,1.13-.07,1.94-.07s1.49.04,1.98.12c.48.08.81.24.99.47.17.23.24.56.2,1s-.17,1.02-.38,1.74l-17.03,58.9Z"/>
</svg>